<svg width="31" height="19" viewBox="0 0 31 19" fill="none" xmlns="http://www.w3.org/2000/svg">
<path d="M8.79445 0C9.68708 0 10.4903 0.0772909 11.2268 0.234903C11.9588 0.391 12.5832 0.648635 13.1106 1.00478C13.6304 1.36092 14.0366 1.83376 14.3291 2.42783C14.6125 3.01433 14.7534 3.74783 14.7534 4.6147C14.7534 5.55431 14.5412 6.33934 14.1154 6.96524C13.6865 7.59266 13.0545 8.10641 12.2119 8.50348C13.3591 8.83537 14.2093 9.41581 14.7731 10.2402C15.3399 11.0722 15.6172 12.0679 15.6172 13.2349C15.6172 14.1821 15.4369 14.9959 15.0747 15.6794C14.7257 16.3527 14.2193 16.9318 13.5986 17.3676C12.9557 17.8153 12.2375 18.1439 11.4784 18.3376C10.6825 18.5465 9.86285 18.6514 9.03996 18.6498H0V0H8.79445ZM8.26251 7.53507C8.98995 7.53507 9.59312 7.3623 10.069 7.01222C10.5418 6.66669 10.7707 6.09686 10.7707 5.31638C10.7707 4.88294 10.6934 4.52529 10.5418 4.24492C10.3942 3.97519 10.1757 3.75091 9.90986 3.59628C9.63166 3.43129 9.32462 3.32071 9.00511 3.27045C8.65683 3.2055 8.30307 3.17454 7.9488 3.17801H4.10701V7.53507H8.26251ZM8.49135 15.4748C8.89599 15.4748 9.28093 15.4399 9.64313 15.3581C10.0084 15.2793 10.3327 15.152 10.6085 14.9625C10.8843 14.7807 11.1117 14.5337 11.2753 14.2184C11.4405 13.9062 11.5208 13.4986 11.5208 13.0091C11.5208 12.0482 11.2496 11.3647 10.7131 10.951C10.1751 10.5418 9.45369 10.3387 8.57016 10.3387H4.10701V15.4763H8.49135V15.4748ZM21.4716 15.4126C22.0278 15.9552 22.8295 16.228 23.8722 16.228C24.6193 16.228 25.2649 16.0385 25.809 15.6627C26.3455 15.2853 26.6728 14.8822 26.7986 14.4655H30.0645C29.5401 16.0901 28.7445 17.2509 27.6564 17.9496C26.5819 18.6513 25.274 18.9998 23.7464 18.9998C22.6825 18.9998 21.7247 18.8286 20.8669 18.4891C20.0436 18.1685 19.2996 17.6732 18.6861 17.0373C18.0828 16.3865 17.6164 15.6212 17.3146 14.7867C16.9829 13.864 16.8186 12.8893 16.8296 11.9088C16.8296 10.8995 16.9979 9.95533 17.3282 9.08391C17.6419 8.24157 18.1234 7.47177 18.7437 6.82127C19.3575 6.18476 20.0849 5.68313 20.9321 5.31486C21.823 4.94019 22.7815 4.75343 23.7479 4.76625C24.8906 4.76625 25.8893 4.98751 26.7471 5.43307C27.5789 5.85839 28.3002 6.47172 28.8536 7.22439C29.4037 7.97153 29.7963 8.82779 30.0403 9.7871C30.2843 10.7449 30.3691 11.7451 30.2994 12.7923H20.5532C20.5547 13.8593 20.9139 14.8701 21.4716 15.4126ZM25.7332 8.31858C25.2922 7.83059 24.5466 7.5669 23.6342 7.5669C23.0417 7.5669 22.5522 7.6654 22.1581 7.86848C21.7979 8.05045 21.4782 8.30359 21.2185 8.61259C20.9905 8.89314 20.8214 9.21685 20.7214 9.56433C20.634 9.85407 20.5776 10.1523 20.5532 10.4539H26.5879C26.5 9.50825 26.1757 8.80961 25.7332 8.31858ZM19.7955 1.2518H27.3563V3.09314H19.7955V1.2518Z" fill="black"/>
</svg>
