<svg width="25" height="29" viewBox="0 0 25 29" fill="none" xmlns="http://www.w3.org/2000/svg">
<path d="M9.9143 11.9865C9.09926 11.9865 8.45715 12.7008 8.45715 13.5729C8.45715 14.4421 9.1143 15.1594 9.9143 15.1594C10.7278 15.1594 11.3699 14.4421 11.3699 13.5729C11.3865 12.6992 10.7278 11.9865 9.9143 11.9865ZM15.1293 11.9865C14.3143 11.9865 13.6722 12.7008 13.6722 13.5729C13.6722 14.4421 14.3293 15.1594 15.1293 15.1594C15.9429 15.1594 16.585 14.4421 16.585 13.5729C16.5835 12.6992 15.9429 11.9865 15.1293 11.9865Z" fill="black"/>
<path d="M22.0722 0H2.92783C2.54235 0.000986119 2.16085 0.0778877 1.8051 0.226314C1.44934 0.37474 1.1263 0.591784 0.854431 0.865054C0.582557 1.13832 0.367171 1.46247 0.220569 1.81898C0.0739672 2.17549 -0.000978993 2.55738 9.6551e-06 2.94286V22.2571C9.6551e-06 23.8857 1.3143 25.2 2.92783 25.2H19.1278L18.3684 22.5549L20.1985 24.2556L21.9263 25.8556L25 28.5714V2.94286C25.001 2.55738 24.9261 2.17549 24.7795 1.81898C24.6328 1.46247 24.4175 1.13832 24.1456 0.865054C23.8737 0.591784 23.5507 0.37474 23.1949 0.226314C22.8392 0.0778877 22.4577 0.000986119 22.0722 0ZM16.5564 18.6571C16.5564 18.6571 16.0421 18.0436 15.615 17.4977C17.4857 16.9684 18.2 15.7985 18.2 15.7985C17.6135 16.1835 17.0572 16.4571 16.5564 16.6436C14.7334 17.4066 12.7258 17.6148 10.785 17.2421C10.0678 17.1012 9.36514 16.8949 8.68572 16.6256C8.3274 16.4894 7.97916 16.3281 7.64362 16.1429C7.60001 16.1113 7.5579 16.0992 7.5158 16.0707C7.49327 16.06 7.47328 16.0446 7.45715 16.0256C7.20001 15.8842 7.05715 15.785 7.05715 15.785C7.05715 15.785 7.74287 16.9278 9.5579 17.4707C9.12933 18.012 8.60001 18.6571 8.60001 18.6571C5.44362 18.5564 4.24512 16.4857 4.24512 16.4857C4.24512 11.8857 6.30227 8.1579 6.30227 8.1579C8.35941 6.61353 10.3158 6.65714 10.3158 6.65714L10.4587 6.82857C7.88723 7.57293 6.70076 8.70075 6.70076 8.70075C6.70076 8.70075 7.01655 8.52932 7.54437 8.28722C9.07219 7.61654 10.2857 7.43008 10.7865 7.38647C10.8722 7.37293 10.9444 7.3579 11.0301 7.3579C13.5071 7.02409 16.0258 7.49483 18.215 8.70075C18.215 8.70075 17.0857 7.63008 14.6572 6.88722L14.8572 6.65865C14.8572 6.65865 16.815 6.61504 18.8707 8.1594C18.8707 8.1594 20.9278 11.8872 20.9278 16.4872C20.9278 16.4872 19.7143 18.5564 16.5564 18.6571Z" fill="black"/>
</svg>
