<svg width="30" height="30" viewBox="0 0 30 30" fill="none" xmlns="http://www.w3.org/2000/svg">
<path d="M27.9898 7.46994C26.6808 5.20155 24.7971 3.31829 22.5283 2.00998C20.2288 0.670494 17.7194 0 14.9999 0C12.2804 0 9.77092 0.670494 7.46994 2.00998C5.17046 3.34947 3.34947 5.17046 2.00998 7.46994C0.670494 9.76942 0 12.2804 0 14.9999C0 17.7194 0.668994 20.2303 2.00998 22.5298C3.31846 24.7986 5.20234 26.6819 7.47144 27.9898C9.77092 29.3293 12.2804 29.9998 14.9999 29.9998C17.7194 29.9998 20.2288 29.3293 22.5298 27.9898C24.7986 26.6815 26.6823 24.7982 27.9913 22.5298C29.3308 20.2303 29.9998 17.7194 29.9998 14.9999C29.9998 12.2804 29.3308 9.76942 27.9898 7.46994ZM14.9999 2.48998C17.9999 2.48998 20.6578 3.44997 22.9798 5.36846C21.5998 7.12944 19.5508 8.57843 16.8299 9.71842C15.3269 6.99894 13.6979 4.72796 11.9384 2.90848C12.9356 2.63275 13.9653 2.492 14.9999 2.48998ZM5.26496 7.19994C6.36181 5.80709 7.74963 4.67062 9.33142 3.86997C11.1494 5.67145 12.8189 7.91994 14.3414 10.6199C11.3414 11.5199 8.17043 11.9699 4.82996 11.9699C3.97047 11.9699 3.32097 11.9504 2.87998 11.9099C3.33969 10.1915 4.15189 8.58751 5.26496 7.19994ZM2.48998 14.9999C2.48998 14.9189 2.49448 14.8199 2.50498 14.6999C2.51548 14.5799 2.51998 14.4809 2.51998 14.3999C2.90098 14.4209 3.48147 14.4299 4.26147 14.4299C8.26043 14.4299 11.9804 13.8794 15.4199 12.7799C15.7004 13.3394 15.9914 13.9694 16.2899 14.6699C14.3099 15.1094 12.2789 16.1789 10.1984 17.8799C8.11793 19.5808 6.59995 21.3703 5.63995 23.2498C3.53997 20.8693 2.48998 18.1199 2.48998 14.9999ZM14.9999 27.5098C12.1589 27.5098 9.60892 26.6293 7.34844 24.8713C8.24993 23.0908 9.63442 21.3883 11.5049 19.7698C13.3739 18.1499 15.2294 17.1404 17.0699 16.7399C18.2308 19.9483 19.0161 23.2805 19.4098 26.6698C18.0042 27.2191 16.5091 27.5038 14.9999 27.5098ZM25.6198 21.5698C24.638 23.1516 23.3159 24.4947 21.7498 25.5013C21.3898 22.3813 20.6998 19.3408 19.6813 16.3799C21.0793 16.2809 22.3288 16.2299 23.4313 16.2299C24.6298 16.2299 25.9603 16.2809 27.4198 16.3799C27.224 18.2246 26.6082 20 25.6198 21.5698ZM23.7598 14.0699C22.0198 14.0699 20.4103 14.1404 18.9298 14.2799C18.6162 13.4591 18.2761 12.6486 17.9099 11.8499C21.0088 10.4909 23.2078 8.84093 24.5083 6.89994C26.3083 9.02093 27.2893 11.4404 27.4483 14.1599C26.2303 14.0999 25.0003 14.0699 23.7598 14.0699Z" fill="black"/>
</svg>
