<svg width="27" height="27" viewBox="0 0 27 27" fill="none" xmlns="http://www.w3.org/2000/svg">
<path d="M25.4998 0H1.49999C1.10217 0 0.720638 0.158034 0.439336 0.439336C0.158034 0.720638 0 1.10217 0 1.49999V25.4998C0 25.8976 0.158034 26.2791 0.439336 26.5604C0.720638 26.8417 1.10217 26.9998 1.49999 26.9998H14.4224V16.5598H10.9154V12.4724H14.4224V9.47241C14.4224 5.98495 16.5524 4.08446 19.6723 4.08446C20.7208 4.08146 21.7708 4.13546 22.8148 4.24496V7.87493H20.6623C18.9703 7.87493 18.6403 8.68192 18.6403 9.86241V12.4649H22.6858L22.1608 16.5524H18.6388V26.9998H25.4998C25.8976 26.9998 26.2791 26.8417 26.5604 26.5604C26.8417 26.2791 26.9998 25.8976 26.9998 25.4998V1.49999C26.9998 1.10217 26.8417 0.720638 26.5604 0.439336C26.2791 0.158034 25.8976 0 25.4998 0Z" fill="black"/>
</svg>
