<svg width="28" height="28" viewBox="0 0 28 28" fill="none" xmlns="http://www.w3.org/2000/svg">
<path d="M13.9673 6.78726C12.0634 6.78726 10.2376 7.54357 8.89135 8.88979C7.54512 10.236 6.78882 12.0619 6.78882 13.9657C6.78882 15.8696 7.54512 17.6955 8.89135 19.0417C10.2376 20.3879 12.0634 21.1442 13.9673 21.1442C15.8711 21.1442 17.697 20.3879 19.0432 19.0417C20.3895 17.6955 21.1458 15.8696 21.1458 13.9657C21.1458 12.0619 20.3895 10.236 19.0432 8.88979C17.697 7.54357 15.8711 6.78726 13.9673 6.78726ZM13.9673 18.6277C12.7305 18.6277 11.5443 18.1364 10.6697 17.2618C9.7951 16.3872 9.30377 15.201 9.30377 13.9642C9.30377 12.7273 9.7951 11.5412 10.6697 10.6666C11.5443 9.792 12.7305 9.30066 13.9673 9.30066C15.2041 9.30066 16.3903 9.792 17.2649 10.6666C18.1395 11.5412 18.6308 12.7273 18.6308 13.9642C18.6308 15.201 18.1395 16.3872 17.2649 17.2618C16.3903 18.1364 15.2041 18.6277 13.9673 18.6277Z" fill="black"/>
<path d="M21.4299 8.19688C22.3541 8.19688 23.1034 7.44761 23.1034 6.52335C23.1034 5.59908 22.3541 4.84982 21.4299 4.84982C20.5056 4.84982 19.7563 5.59908 19.7563 6.52335C19.7563 7.44761 20.5056 8.19688 21.4299 8.19688Z" fill="black"/>
<path d="M27.2158 4.82188C26.8564 3.8938 26.3072 3.05098 25.6033 2.34738C24.8995 1.64378 24.0565 1.09489 23.1282 0.735856C22.0421 0.328119 20.8946 0.107648 19.7346 0.0838316C18.2396 0.0186291 17.7661 0 13.9751 0C10.184 0 9.69809 -1.54221e-07 8.21551 0.0838316C7.05644 0.10643 5.90976 0.326946 4.82498 0.735856C3.89652 1.09447 3.05328 1.64321 2.34936 2.34687C1.64544 3.05052 1.09638 3.89355 0.737409 4.82188C0.32959 5.90798 0.109625 7.05558 0.0869366 8.21551C0.0201817 9.70896 0 10.1824 0 13.9751C0 17.7661 -1.54221e-08 18.2489 0.0869366 19.7346C0.110223 20.8958 0.329117 22.0415 0.737409 23.1298C1.09738 24.0578 1.64698 24.9005 2.35107 25.604C3.05516 26.3076 3.89827 26.8565 4.82653 27.2158C5.90926 27.6399 7.05641 27.8762 8.21861 27.9144C9.71361 27.9796 10.1871 27.9998 13.9782 27.9998C17.7692 27.9998 18.2551 27.9998 19.7377 27.9144C20.8975 27.8908 22.045 27.6709 23.1313 27.2639C24.0593 26.9041 24.9021 26.3547 25.6059 25.6509C26.3097 24.9471 26.859 24.1043 27.2189 23.1764C27.6272 22.0897 27.8461 20.944 27.8694 19.7827C27.9361 18.2893 27.9563 17.8158 27.9563 14.0232C27.9563 10.2306 27.9563 9.74932 27.8694 8.26363C27.8513 7.08731 27.6302 5.92294 27.2158 4.82188ZM25.3249 19.6197C25.3149 20.5144 25.1516 21.4007 24.8421 22.2402C24.609 22.8439 24.2521 23.3922 23.7943 23.8496C23.3366 24.3071 22.7882 24.6637 22.1844 24.8965C21.3542 25.2045 20.4772 25.3679 19.5918 25.3793C18.117 25.4476 17.7009 25.4647 13.9192 25.4647C10.1343 25.4647 9.74777 25.4647 8.24501 25.3793C7.36 25.3684 6.48349 25.2051 5.65398 24.8965C5.04805 24.6651 4.49742 24.3092 4.03772 23.8516C3.57803 23.3941 3.2195 22.8451 2.98534 22.2402C2.6802 21.4098 2.51699 20.5339 2.50253 19.6492C2.43578 18.1744 2.42025 17.7584 2.42025 13.9766C2.42025 10.1933 2.42025 9.80676 2.50253 8.30245C2.51257 7.40828 2.67587 6.52245 2.98534 5.68348C3.45884 4.45861 4.42911 3.49454 5.65398 3.0257C6.4839 2.71854 7.36015 2.55526 8.24501 2.5429C9.72138 2.47614 10.1359 2.45751 13.9192 2.45751C17.7025 2.45751 18.0906 2.45751 19.5918 2.5429C20.4773 2.55355 21.3544 2.71688 22.1844 3.0257C22.7881 3.25899 23.3365 3.61594 23.7942 4.07365C24.2519 4.53135 24.6088 5.07969 24.8421 5.68348C25.1473 6.51396 25.3105 7.38986 25.3249 8.2745C25.3917 9.75087 25.4088 10.1654 25.4088 13.9487C25.4088 17.7304 25.4088 18.1371 25.342 19.6213H25.3249V19.6197Z" fill="black"/>
</svg>
