<svg width="87" height="31" viewBox="0 0 87 31" fill="none" xmlns="http://www.w3.org/2000/svg">
<path fill-rule="evenodd" clip-rule="evenodd" d="M85.2786 0.364214C84.5448 0.561453 80.5088 1.64133 76.3098 2.76398C72.1108 3.88671 67.5412 5.10905 66.1552 5.4804C64.7691 5.85175 60.9666 6.869 57.7053 7.74104C40.0116 12.472 24.8695 16.5234 22.9421 17.0422C20.3224 17.7473 19.2525 17.9036 17.5312 17.8327C14.8646 17.7228 12.6911 16.891 11.1301 15.383C9.48721 13.7959 8.73599 11.7221 8.84495 9.07457C8.92863 7.04141 9.48247 4.9511 10.5721 2.55629C10.8306 1.988 11.0346 1.51606 11.0253 1.50747C11.0161 1.49879 10.6005 1.98348 10.1018 2.58446C4.31151 9.56192 0.881518 15.6989 0.115469 20.4523C-0.0513798 21.4874 -0.0352951 23.1768 0.15001 24.0862C0.534702 25.9737 1.53223 27.4037 3.3749 28.709C7.11732 31.36 11.7021 31.6462 17.873 29.6137C20.2599 28.8276 23.1779 27.6374 34.0233 23.0258C35.5113 22.3931 38.1964 21.2523 39.9901 20.4906C41.7839 19.7288 43.4683 19.0119 43.7333 18.8972C43.9983 18.7825 46.2664 17.8139 48.7736 16.7446C55.2435 13.9853 67.4656 8.75985 81.276 2.84863C84.2928 1.55735 86.824 0.439742 86.901 0.365101C87.0756 0.195881 87.0093 -0.00728537 86.7819 0.000200934C86.6889 0.00323993 86.0124 0.16705 85.2786 0.364214Z" fill="#2D2D2D"/>
</svg>
