<svg width="39" height="47" viewBox="0 0 39 47" fill="none" xmlns="http://www.w3.org/2000/svg">
<path fill-rule="evenodd" clip-rule="evenodd" d="M28.0634 0.0239488C26.0794 0.215149 23.7502 1.3643 22.116 2.95819C20.3677 4.66336 19.1863 7.03371 18.9792 9.25183C18.9473 9.59246 18.962 10.403 19.004 10.6295L19.0324 10.7824L19.2293 10.8104C19.5166 10.8512 20.2238 10.8267 20.5871 10.7633C21.9733 10.5217 23.4169 9.83939 24.7072 8.81623C25.0973 8.50687 25.8186 7.7768 26.1738 7.33187C26.6907 6.68429 27.1296 5.99226 27.4839 5.26609C28 4.20847 28.3057 3.20797 28.4729 2.02969C28.5212 1.68916 28.5435 0.628099 28.508 0.354107C28.4591 -0.0242069 28.4684 -0.00210303 28.3599 0.00143176C28.3077 0.0031303 28.1743 0.0132756 28.0634 0.0239488ZM27.1746 11.3761C26.6405 11.4076 25.9159 11.5244 25.281 11.6813C24.4452 11.8878 23.818 12.101 22.343 12.6798C21.1463 13.1494 20.7752 13.2802 20.2937 13.4021C19.683 13.5567 19.1473 13.5529 18.4869 13.3891C18.0192 13.2732 17.6776 13.1517 16.4485 12.6644C15.2659 12.1954 14.8346 12.0393 14.275 11.8774C12.9122 11.4833 11.8247 11.3956 10.4533 11.5692C8.97455 11.7565 7.54381 12.2466 6.25283 13.008C3.74297 14.4884 1.86791 16.8793 0.85831 19.8866C0.11263 22.1078 -0.148439 24.6258 0.0800369 27.3929C0.289255 29.9266 0.908646 32.6161 1.86944 35.1626C2.48617 36.7972 3.32022 38.5191 4.14858 39.868C4.90592 41.1012 6.43235 43.1717 7.38068 44.252C9.14466 46.2616 10.7807 47.1175 12.6087 46.9871C13.5712 46.9184 14.1815 46.7468 15.6631 46.1286C16.6188 45.7298 17.018 45.5806 17.5124 45.4377C19.0071 45.0054 20.6961 44.9674 22.1594 45.3331C22.7718 45.4862 23.1243 45.6137 24.1678 46.0594C25.4621 46.6124 25.9579 46.7686 26.773 46.8806C27.1349 46.9302 27.9108 46.9495 28.219 46.9165C29.6434 46.7639 30.9433 46.0567 32.2364 44.7308C33.0255 43.9216 33.8239 42.9043 34.9718 41.2452C36.2372 39.4161 37.3641 37.1833 38.0648 35.1167C38.2777 34.4886 38.279 34.4827 38.2108 34.4616C37.9797 34.3901 37.0956 33.9049 36.6314 33.5947C33.9787 31.8227 32.3772 29.2681 32.031 26.2568C31.7431 23.752 32.2956 21.3697 33.6359 19.3364C34.4128 18.1577 35.5355 17.0338 36.7404 16.2286C36.895 16.1252 37.0216 16.0295 37.0216 16.0159C37.0216 15.977 36.7065 15.5553 36.4329 15.2281C34.4987 12.9143 31.7649 11.5847 28.5289 11.3839C28.1805 11.3622 27.4778 11.3582 27.1746 11.3761Z" fill="#2D2D2D"/>
</svg>
