<svg width="114" height="18" viewBox="0 0 114 18" fill="none" xmlns="http://www.w3.org/2000/svg">
<path fill-rule="evenodd" clip-rule="evenodd" d="M5.0271 0.018133C3.02345 0.174837 1.58356 0.851552 0.823051 1.99389C0.358272 2.69206 0.157963 3.40213 0.127995 4.45785C0.111003 5.05638 0.140761 5.42053 0.242594 5.8604C0.494927 6.95032 1.22463 7.83909 2.63473 8.77408C3.13772 9.10756 3.49137 9.31579 4.66008 9.96649C6.12391 10.7815 6.56607 11.076 7.04301 11.5535C7.39244 11.9034 7.54651 12.15 7.62584 12.4865C7.72009 12.8864 7.65925 13.4436 7.48016 13.8207C7.23112 14.3451 6.76488 14.5915 6.02364 14.5906C5.16732 14.5895 4.60215 14.2105 4.42126 13.5161C4.38494 13.3766 4.37538 13.1506 4.37538 12.4322V11.5244H2.18769H0V12.2834C0 13.1011 0.031197 13.5374 0.120952 13.9746C0.480483 15.7257 1.71934 16.8676 3.75189 17.321C5.20976 17.6463 7.09072 17.6104 8.45518 17.2314C9.3115 16.9935 9.99693 16.6232 10.5288 16.1113C11.2219 15.4443 11.5583 14.7211 11.7077 13.5773C11.7804 13.0203 11.78 11.8434 11.707 11.3746C11.5089 10.1038 10.7758 9.1503 9.21092 8.12823C8.69286 7.78985 8.23144 7.52533 7.05755 6.89365C5.61124 6.11543 5.08554 5.77298 4.70374 5.3605C4.3989 5.03112 4.28547 4.72916 4.28547 4.24694C4.28547 3.32119 4.84307 2.77264 5.78269 2.77411C6.42288 2.7751 6.88969 3.012 7.12635 3.45601C7.28758 3.75851 7.31228 3.91345 7.31228 4.62301V5.26104H9.35013H11.388L11.3877 4.63919C11.3872 3.42775 11.284 2.82931 10.966 2.19258C10.3693 0.998307 9.11814 0.289107 7.20547 0.0609875C6.73287 0.00461702 5.50791 -0.0194773 5.0271 0.018133ZM58.0487 0.107409C55.8533 0.278318 54.3601 1.0527 53.6639 2.38126C53.5179 2.66002 53.3697 3.05656 53.3012 3.35211C53.1093 4.18002 53.1141 5.25675 53.3131 6.01555C53.5805 7.03501 54.3627 7.94527 55.7411 8.84115C56.1532 9.10894 56.5862 9.3625 57.4817 9.86031C57.9172 10.1024 58.4772 10.4224 58.7262 10.5714C59.7471 11.1823 60.3278 11.7253 60.5393 12.2666C60.6328 12.5058 60.6532 13.0459 60.5812 13.3744C60.4476 13.9842 60.1253 14.329 59.5471 14.481C59.2867 14.5495 58.731 14.5503 58.4765 14.4826C58.0479 14.3686 57.6903 14.0999 57.5299 13.7715C57.385 13.4749 57.3605 13.2691 57.3599 12.3411L57.3594 11.4945H55.1984H53.0374L53.0528 12.4759C53.0656 13.289 53.0787 13.5139 53.1293 13.787C53.4542 15.5393 54.5987 16.6849 56.5161 17.1769C58.0325 17.566 60.0368 17.546 61.4818 17.1275C62.344 16.8778 62.962 16.531 63.5071 15.9909C64.3652 15.1408 64.685 14.159 64.6836 12.3785C64.683 11.6251 64.6503 11.3174 64.52 10.8383C64.2659 9.90394 63.432 8.95706 62.1094 8.10114C61.6685 7.81581 61.1451 7.51741 60.0785 6.94337C58.5823 6.13815 58.0709 5.80538 57.689 5.38858C57.3198 4.98566 57.1945 4.49636 57.3149 3.92795C57.4649 3.21992 57.9819 2.83483 58.7829 2.83456C59.3836 2.83438 59.8602 3.083 60.0975 3.52038C60.249 3.79948 60.2721 3.93539 60.2881 4.63919L60.3029 5.291H62.3075H64.3121V4.6029C64.3121 4.22446 64.2971 3.77604 64.2789 3.60645C64.0635 1.60598 62.6904 0.449948 60.1765 0.152332C59.6902 0.0947928 58.5265 0.0702181 58.0487 0.107409ZM107.272 0.0953311C106.891 0.133361 106.264 0.237442 105.945 0.315539C104.991 0.549143 104.277 0.927973 103.687 1.51379C103.005 2.19144 102.67 2.91664 102.488 4.10725C102.436 4.44458 102.413 12.2818 102.462 12.903C102.506 13.4693 102.56 13.7733 102.686 14.1766C103.317 16.196 105.428 17.2967 108.5 17.2088C111.615 17.1196 113.504 15.8391 113.881 13.5623C113.981 12.9547 114 12.3962 114 10.0129V7.68847H111.108H108.216V8.88721V10.0859H109.055H109.894L109.893 11.5019C109.893 13.0483 109.881 13.1883 109.724 13.4764C109.454 13.9725 108.965 14.2444 108.291 14.2732C107.39 14.3118 106.749 13.9062 106.545 13.1695C106.496 12.9905 106.493 12.698 106.493 8.72238C106.493 4.71315 106.496 4.45342 106.547 4.2345C106.736 3.4294 107.302 3.0043 108.186 3.0043C108.725 3.0043 109.093 3.13832 109.403 3.44672C109.766 3.80811 109.833 4.04399 109.855 5.02878L109.871 5.74053H111.921H113.97V5.22043C113.97 3.41921 113.635 2.37655 112.787 1.52977C112.05 0.794313 111.129 0.386145 109.699 0.160693C109.378 0.109987 109.142 0.0979092 108.351 0.0913162C107.823 0.0869408 107.338 0.0887381 107.272 0.0953311ZM68.4903 0.536316C68.4817 0.558703 68.4797 3.42113 68.4858 6.89731C68.4956 12.529 68.5021 13.2524 68.5453 13.5364C68.7125 14.6369 69.0373 15.3298 69.6883 15.9752C70.5581 16.8374 71.7589 17.2654 73.6094 17.3727C74.8574 17.4451 76.1313 17.2989 77.0692 16.9755C78.7992 16.379 79.7425 15.1353 79.8944 13.2507C79.9147 13 79.9256 10.6926 79.9256 6.68019V0.496068H77.8733H75.821L75.813 6.85685L75.8049 13.2176L75.738 13.4146C75.568 13.9144 75.2346 14.2355 74.7248 14.3904C74.4542 14.4726 73.8918 14.4642 73.6334 14.3741C73.1733 14.2136 72.8862 13.936 72.6928 13.4647L72.6283 13.3075L72.6133 6.9093L72.5983 0.511052L70.5521 0.50335C68.8514 0.496937 68.5033 0.502512 68.4903 0.536316ZM17.4291 0.60845C17.3772 0.857097 14.4447 16.814 14.4447 16.848C14.4447 16.882 14.8088 16.8888 16.6311 16.8888H18.8174L18.8344 16.7914C18.8692 16.5908 21.0378 2.09116 21.0378 2.05853C21.0378 2.03977 21.0648 2.02445 21.0977 2.02445C21.1307 2.02445 21.1577 2.04136 21.1577 2.062C21.1577 2.09863 23.2678 16.5981 23.3012 16.7914L23.3181 16.8888H25.505H27.6919L27.6763 16.8213C27.6565 16.7359 24.6939 0.565416 24.6939 0.542789C24.6939 0.533589 23.0632 0.526037 21.0701 0.526037H17.4463L17.4291 0.60845ZM31.3057 0.743186C31.2912 0.935104 30.9539 16.3857 30.9564 16.7464L30.9573 16.8888H32.9952H35.033L35.0332 15.6376C35.0338 12.5312 35.1256 2.18961 35.1528 2.1624C35.1688 2.14643 35.19 2.14148 35.1999 2.15143C35.2099 2.16138 35.8238 5.45101 36.5641 9.4617C37.3045 13.4724 37.9172 16.7843 37.9257 16.8213L37.9411 16.8888H40.0042H42.0673L42.0983 16.7314C42.1154 16.6449 42.7261 13.3375 43.4556 9.38168C44.1849 5.42586 44.7932 2.17648 44.8072 2.16081C44.8233 2.14283 44.8422 2.14283 44.8587 2.16081C44.8782 2.18212 44.9883 14.9506 44.9833 16.6115L44.9825 16.8888H47.0216H49.0608L49.0428 16.3568C49.0329 16.0642 48.9587 12.6692 48.8779 8.81229C48.7971 4.95536 48.7222 1.51313 48.7114 1.16286L48.6919 0.526037L45.3763 0.526066L42.0606 0.526126L41.0571 6.77812C40.1109 12.673 40.0324 13.1238 39.9651 13.049C39.9596 13.0429 39.5042 10.226 38.9531 6.78942L37.9511 0.541021L34.6366 0.533408L31.3221 0.525768L31.3057 0.743186ZM84.4808 8.63248V16.7389H86.4737H88.4666L88.4663 16.3718C88.4662 16.1699 88.4191 13.2401 88.3616 9.86118C88.3042 6.48225 88.2571 3.64688 88.257 3.56033C88.2567 3.31315 88.3278 3.3528 88.4182 3.65024C88.4596 3.78623 88.8722 5.15165 89.3353 6.68453C89.7984 8.21741 90.6712 11.1068 91.275 13.1054L92.3727 16.7392L95.267 16.7316L98.1613 16.7239L98.1689 8.62498L98.1764 0.526037H96.1528H94.1291L94.1463 1.1329C94.1557 1.46668 94.2027 4.12673 94.2506 7.04415C94.2985 9.96157 94.3443 12.5812 94.3524 12.8655C94.3659 13.3421 94.363 13.3825 94.315 13.3825C94.2716 13.3825 93.9569 12.33 92.409 7.00669C91.3894 3.50001 90.5489 0.607311 90.5413 0.578481C90.5282 0.528973 90.3582 0.526037 87.5041 0.526037H84.4808V8.63248Z" fill="#2D2D2D"/>
</svg>
