<svg width="65" height="44" viewBox="0 0 65 44" fill="none" xmlns="http://www.w3.org/2000/svg">
<path fill-rule="evenodd" clip-rule="evenodd" d="M34.0273 2.63001C31.4187 4.12812 29.259 5.36338 29.2281 5.37501C29.1971 5.38665 32.181 10.6245 35.859 17.0148L42.5461 28.6335H48.9723H55.3985L55.2429 28.3572C54.8824 27.7163 38.9126 0.115353 38.8447 0.0156226C38.7787 -0.0814426 38.2345 0.213849 34.0273 2.63001ZM23.0106 12.7464C20.3824 14.2611 18.2401 15.5317 18.2498 15.5699C18.2595 15.6081 19.9636 18.5704 22.0366 22.1527L25.8057 28.666L25.8059 30.015L25.8062 31.3641H27.1715H28.5367V29.9992V28.6343L33.544 28.6176L38.5514 28.601L33.1805 19.304C30.2265 14.1907 27.805 10.0038 27.7994 9.99975C27.7937 9.99566 25.6388 11.2317 23.0106 12.7464ZM11.7673 22.5879C9.17714 24.0884 7.03592 25.3385 7.00907 25.3657C6.98222 25.393 7.37418 26.1394 7.88018 27.0244L8.80012 28.6335H15.1972C20.2881 28.6335 21.5878 28.6169 21.5629 28.5522C21.4861 28.3522 16.5776 19.8905 16.53 19.876C16.5007 19.8671 14.3575 21.0874 11.7673 22.5879ZM21.7103 30.9432V33.2528L21.239 32.995C19.5779 32.0864 17.584 32.0618 15.8266 32.9283C14.6792 33.494 13.8509 34.3116 13.2949 35.4274C12.8268 36.3668 12.7077 36.8864 12.7137 37.9629C12.7199 39.0502 12.8457 39.6073 13.2868 40.4985C14.2552 42.4548 16.2697 43.7156 18.4271 43.7156C19.3573 43.7156 20.267 43.4867 21.1723 43.0247L21.7103 42.7502V43.1034V43.4566H23.0756H24.4409V36.045V28.6335H23.0756H21.7103V30.9432ZM38.6138 30.9333V33.2332L38.1425 32.9818C36.1355 31.9115 33.6527 32.1092 31.8483 33.4831C30.7873 34.2909 30.0111 35.5174 29.7342 36.8236C29.627 37.3288 29.6149 38.404 29.7103 38.9424C30.253 42.0066 33.0774 44.0691 36.1661 43.6568C36.8192 43.5696 37.8423 43.2264 38.3034 42.9398L38.6138 42.7468V43.1017V43.4566H39.9791H41.3444V36.045V28.6335H39.9791H38.6138V30.9333ZM4.95938 32.3385C2.76615 32.6483 0.932445 34.1733 0.268266 36.2401C-0.581591 38.8846 0.64606 41.8187 3.12659 43.0718C4.8131 43.9237 6.68881 43.9252 8.3988 43.076L9.03268 42.7612V43.1089V43.4566H10.3655H11.6982V37.9304V32.4043H10.3655H9.03268V32.8215V33.2388L8.41544 32.9246C8.04473 32.7358 7.56974 32.5567 7.22602 32.476C6.56132 32.3199 5.53274 32.2575 4.95938 32.3385ZM47.177 32.3408C45.7557 32.5653 44.3397 33.3715 43.4958 34.4365C43.0597 34.9867 42.6894 35.6993 42.4741 36.4026C42.3129 36.9289 42.2951 37.0825 42.2972 37.9304C42.2999 39.0213 42.4171 39.5714 42.8303 40.4334C43.5794 41.9965 44.9374 43.1032 46.6755 43.5674C47.2741 43.7272 48.7517 43.7238 49.3629 43.5612C49.9249 43.4116 50.4706 43.1905 50.895 42.9402L51.2265 42.7448V43.1007V43.4566H52.5918H53.957V37.9304V32.4043H52.5918H51.2265V32.8348C51.2265 33.1713 51.2087 33.2509 51.1452 33.1989C50.9161 33.0118 49.9581 32.5971 49.4771 32.4769C48.8492 32.32 47.7281 32.2536 47.177 32.3408ZM59.1906 32.3169C57.2123 32.5518 55.8756 33.4718 55.4414 34.8973C55.3293 35.2653 55.311 35.4594 55.3358 36.0171C55.3633 36.635 55.3864 36.7332 55.6097 37.1852C56.2026 38.3847 57.0638 38.8134 59.7824 39.2622C61.1142 39.482 61.5636 39.627 61.8208 39.9199C62.2301 40.3862 61.9819 41.0712 61.2711 41.4366C60.9775 41.5875 60.8736 41.6037 60.1983 41.6037C59.6135 41.6037 59.3751 41.5757 59.1036 41.475C58.4713 41.2406 58.0453 40.7506 57.9488 40.1469L57.9062 39.8808H56.4842H55.0623V40.0947C55.0623 40.4408 55.244 41.0393 55.4931 41.5133C56.2772 43.0054 58.1723 43.8204 60.561 43.6927C63.2369 43.5497 64.8052 42.3441 64.9865 40.291C65.1387 38.5676 64.0022 37.3119 61.8778 36.8563C61.4726 36.7694 60.7314 36.6257 60.2308 36.537C59.0943 36.3358 58.6981 36.209 58.4067 35.9536C58.1174 35.7001 58.0537 35.3873 58.22 35.0369C58.3098 34.8477 58.4187 34.7532 58.6984 34.6221C59.0329 34.4652 59.1278 34.4522 59.9383 34.4522C60.778 34.4522 60.8291 34.4599 61.1191 34.6304C61.4812 34.8433 61.6886 35.1541 61.7486 35.5739L61.7927 35.8825L63.1735 35.9C64.7507 35.9201 64.6221 35.9833 64.4541 35.2709C64.2534 34.4192 63.5718 33.4914 62.8045 33.0253C61.9057 32.4793 60.3656 32.1774 59.1906 32.3169ZM25.8062 37.9304V43.4566H27.1715H28.5367V37.9304V32.4043H27.1715H25.8062V37.9304ZM6.6316 34.9146C7.88356 35.286 8.78205 36.2983 8.97794 37.5582C9.12825 38.525 8.79063 39.4658 8.03192 40.1943C6.5517 41.6157 4.23305 41.3386 3.11248 39.6064C2.76901 39.0754 2.63912 38.5393 2.67195 37.7879C2.69548 37.2512 2.72708 37.1184 2.93623 36.6779C3.60983 35.2596 5.21417 34.494 6.6316 34.9146ZM19.3092 34.9135C19.8944 35.0854 20.389 35.3883 20.7977 35.8252C22.0185 37.1303 21.9814 38.973 20.7096 40.1943C19.4726 41.3821 17.6089 41.4132 16.3546 40.2669C15.7542 39.7181 15.4421 39.1235 15.3389 38.3316C15.1446 36.8405 16.1924 35.3144 17.6863 34.9127C18.1567 34.7862 18.877 34.7865 19.3092 34.9135ZM36.6058 35.032C37.8135 35.5222 38.6138 36.7034 38.6138 37.9954C38.6138 39.5173 37.506 40.7974 35.9594 41.0626C34.946 41.2364 33.9657 40.9114 33.2233 40.1556C32.5278 39.4476 32.2746 38.7834 32.3185 37.7817C32.3415 37.2546 32.3741 37.1168 32.5764 36.6929C32.9796 35.8476 33.63 35.2645 34.5165 34.9536C35.1077 34.7462 35.9825 34.7791 36.6058 35.032ZM48.8904 34.9146C49.4693 35.0863 49.8672 35.3235 50.2825 35.7446C51.2987 36.7748 51.5112 38.1571 50.8532 39.4564C50.6103 39.9361 49.9548 40.559 49.4386 40.8006C47.3358 41.7845 44.9156 40.2366 44.9209 37.911C44.9239 36.5846 45.9703 35.2742 47.3257 34.8994C47.7408 34.7847 48.4766 34.7918 48.8904 34.9146Z" fill="#2D2D2D"/>
</svg>
